<svg width="24" height="24" viewBox="0 0 24 24" fill="none" xmlns="http://www.w3.org/2000/svg">
<path d="M2 21H22" stroke="#45086D" stroke-width="1.5" stroke-linecap="round"/>
<path d="M7.5 17C6.565 17 6.098 17 5.75 16.799C5.52199 16.6674 5.33265 16.478 5.201 16.25C5 15.902 5 15.435 5 14.5V5.5C5 4.565 5 4.098 5.201 3.75C5.33265 3.52199 5.52199 3.33265 5.75 3.201C6.098 3 6.565 3 7.5 3C8.435 3 8.902 3 9.25 3.201C9.47801 3.33265 9.66735 3.52199 9.799 3.75C10 4.098 10 4.565 10 5.5V14.5C10 15.435 10 15.902 9.799 16.25C9.66735 16.478 9.47801 16.6674 9.25 16.799C8.902 17 8.435 17 7.5 17ZM16.5 17C15.565 17 15.098 17 14.75 16.799C14.522 16.6674 14.3326 16.478 14.201 16.25C14 15.902 14 15.435 14 14.5V8.5C14 7.565 14 7.098 14.201 6.75C14.3326 6.52199 14.522 6.33265 14.75 6.201C15.098 6 15.565 6 16.5 6C17.435 6 17.902 6 18.25 6.201C18.478 6.33265 18.6674 6.52199 18.799 6.75C19 7.098 19 7.565 19 8.5V14.5C19 15.435 19 15.902 18.799 16.25C18.6674 16.478 18.478 16.6674 18.25 16.799C17.902 17 17.435 17 16.5 17Z" stroke="#45086D" stroke-width="1.5"/>
</svg>
